<svg xmlns="http://www.w3.org/2000/svg" width="512" height="512" viewBox="0 0 512 512">
  <defs>
    <linearGradient id="g" x1="0" y1="0" x2="1" y2="1">
      <stop offset="0" stop-color="#1F6F5B" stop-opacity="0.12"/>
      <stop offset="1" stop-color="#1F6F5B" stop-opacity="0.30"/>
    </linearGradient>
  </defs>
  <rect x="32" y="32" width="448" height="448" rx="96" fill="url(#g)"/>
  <!-- crescent -->
  <path d="M315 140c-46 18-78 63-78 115 0 68 55 123 123 123 18 0 35-4 51-11-24 33-63 55-107 55-74 0-134-60-134-134 0-62 42-114 99-128 16-4 33-4 46 0z" fill="#1F6F5B" fill-opacity="0.70"/>
  <!-- star (8-point) -->
  <path d="M355 180l15 23 27 7-17 21 1 28-26-10-26 10 1-28-17-21 27-7z" fill="#1F6F5B" fill-opacity="0.85"/>
  <!-- subtle pattern dots -->
  <g fill="#1F6F5B" fill-opacity="0.25">
    <circle cx="142" cy="198" r="6"/>
    <circle cx="160" cy="312" r="5"/>
    <circle cx="190" cy="250" r="4"/>
    <circle cx="220" cy="360" r="6"/>
    <circle cx="120" cy="360" r="4"/>
    <circle cx="392" cy="350" r="5"/>
  </g>
</svg>
